HIERARCHY
ROOT Hips
{
	OFFSET -0.179506 -22.333345 2.821913
	CHANNELS 6 Xposition Yposition Zposition Zrotation Yrotation Xrotation 
	JOINT LeftUpLeg
	{
		OFFSET 6.951974 -9.140623 -0.681533
		CHANNELS 3 Zrotation Yrotation Xrotation
		JOINT LeftLeg
		{
			OFFSET 3.427654 -37.519855 -0.449580
			CHANNELS 3 Zrotation Yrotation Xrotation
			JOINT LeftFoot
			{
				OFFSET -1.359570 -39.796059 -4.369333
				CHANNELS 3 Zrotation Yrotation Xrotation
				JOINT LeftToe
				{
					OFFSET 2.635814 -5.579078 11.928840
					CHANNELS 3 Zrotation Yrotation Xrotation
					End Site
					{
						OFFSET 0.000000 0.000000 0.000000
					}
				}
			}
		}
	}
	JOINT RightUpLeg
	{
		OFFSET -6.767048 -9.052170 -0.431982
		CHANNELS 3 Zrotation Yrotation Xrotation
		JOINT RightLeg
		{
			OFFSET -3.829005 -38.256897 -0.885003
			CHANNELS 3 Zrotation Yrotation Xrotation
			JOINT RightFoot
			{
				OFFSET 1.577377 -39.841461 -4.231180
				CHANNELS 3 Zrotation Yrotation Xrotation
				JOINT RightToe
				{
					OFFSET -2.537174 -4.814398 12.334795
					CHANNELS 3 Zrotation Yrotation Xrotation
					End Site
					{
						OFFSET 0.000000 0.000000 0.000000
					}
				}
			}
		}
	}
	JOINT Spine
	{
		OFFSET -0.253288 10.896323 -2.669631
		CHANNELS 3 Zrotation Yrotation Xrotation
		JOINT Spine1
		{
			OFFSET 0.548704 13.518043 0.109247
			CHANNELS 3 Zrotation Yrotation Xrotation
			JOINT Spine2
			{
				OFFSET 0.145701 5.292222 2.542457
				CHANNELS 3 Zrotation Yrotation Xrotation
				JOINT Neck
				{
					OFFSET -0.277840 21.387037 -4.285703
					CHANNELS 3 Zrotation Yrotation Xrotation
					JOINT Head
					{
						OFFSET 0.515184 6.496960 5.134897
						CHANNELS 3 Zrotation Yrotation Xrotation
						End Site
						{
							OFFSET 0.000000 0.000000 0.000000
						}
					}
				}
				JOINT LeftShoulder
				{
					OFFSET 7.884473 12.174932 -3.408961
					CHANNELS 3 Zrotation Yrotation Xrotation
					JOINT LeftArm
					{
						OFFSET 9.097692 3.046888 -0.886815
						CHANNELS 3 Zrotation Yrotation Xrotation
						JOINT LeftForeArm
						{
							OFFSET 25.961220 -1.277207 -2.745643
							CHANNELS 3 Zrotation Yrotation Xrotation
							JOINT LeftHand
							{
								OFFSET 24.923361 0.898606 -0.117091
								CHANNELS 3 Zrotation Yrotation Xrotation
								End Site
								{
									OFFSET 0.000000 0.000000 0.000000
								}
							}
						}
					}
				}
				JOINT RightShoulder
				{
					OFFSET -8.175920 11.883285 -3.861528
					CHANNELS 3 Zrotation Yrotation Xrotation
					JOINT RightArm
					{
						OFFSET -9.601238 3.255117 -0.914307
						CHANNELS 3 Zrotation Yrotation Xrotation
						JOINT RightForeArm
						{
							OFFSET -25.374195 -1.332924 -2.140099
							CHANNELS 3 Zrotation Yrotation Xrotation
							JOINT RightHand
							{
								OFFSET -25.529810 0.777228 -0.555919
								CHANNELS 3 Zrotation Yrotation Xrotation
								End Site
								{
									OFFSET 0.000000 0.000000 0.000000
								}
							}
						}
					}
				}
			}
		}
	}
}
MOTION
Frames: 7
Frame Time: 0.033333
7.147424 1.193073 37.399803 179.156755 -3.157060 64.005494 32.866922 15.510567 -58.473437 -16.457884 24.875095 147.322922 0.191870 -10.415540 -35.398476 nan nan nan -33.988692 -17.416155 -56.399699 7.025170 -14.303523 152.960220 3.237124 25.932645 -37.452250 nan nan nan 1.586930 0.295678 74.936049 1.462825 -4.242403 -11.611798 0.400666 0.867695 -0.033475 -10.856213 4.877492 -14.501448 8.386025 -9.233058 -15.656758 -1.846720 -36.828573 -3.245187 -49.885715 -17.459696 -0.551003 51.089225 -77.772362 -16.465953 -2.456359 -15.360557 -18.150860 -2.695049 36.944119 -5.714766 56.195718 18.224213 -0.319036 -33.092108 81.775715 3.940255 8.017914 3.470341 -7.758122 
7.165949 1.191638 37.397667 179.086888 -3.124787 64.057293 32.975444 15.593400 -58.457115 -16.440831 24.844940 147.325172 0.326561 -10.400662 -35.417661 nan nan nan -33.888892 -17.411674 -56.520344 6.987171 -14.389600 152.951306 3.205672 25.812718 -37.386588 nan nan nan 1.569112 0.332878 74.846008 1.445857 -4.200724 -11.491602 0.414627 0.856605 -0.100749 -10.870306 4.867493 -14.369640 8.447277 -9.191156 -15.687082 -1.866661 -36.800439 -3.248239 -49.874159 -17.431809 -0.586358 51.354764 -77.844377 -16.684397 -2.937796 -15.219347 -17.740621 -2.703891 36.944816 -5.668078 56.230786 18.184127 -0.273541 -33.621398 81.953253 3.690996 8.298412 3.048720 -7.059796 
7.177624 1.180541 37.425835 179.083202 -3.094346 64.002113 32.988664 15.574167 -58.353196 -16.421540 24.772291 147.295592 0.427258 -10.358631 -35.394054 nan nan nan -33.822913 -17.409649 -56.497381 6.989065 -14.410976 152.934097 3.217806 25.803312 -37.269058 nan nan nan 1.572582 0.314075 74.937610 1.426766 -4.186150 -11.440904 0.423080 0.882843 -0.123401 -10.893911 4.840693 -14.431723 8.431980 -9.207593 -15.607702 -1.849378 -36.760846 -3.311088 -49.857091 -17.483782 -0.657771 51.243211 -77.864314 -16.628379 -3.423372 -15.263988 -17.363848 -2.746299 36.905546 -5.740581 56.250108 18.147152 -0.278849 -34.221438 82.039988 3.263573 8.742360 3.016374 -6.310074 
7.182077 1.178207 37.439335 179.119027 -3.062230 63.992020 32.933481 15.551054 -58.355001 -16.430686 24.732254 147.284796 0.526365 -10.277821 -35.410770 nan nan nan -33.795931 -17.456178 -56.460554 6.982892 -14.417512 152.936140 3.211170 25.778119 -37.177657 nan nan nan 1.570985 0.256487 74.992105 1.424772 -4.195388 -11.498519 0.428099 0.910908 -0.050275 -10.927731 4.781329 -14.449752 8.397075 -9.158643 -15.618214 -1.828563 -36.683899 -3.354475 -49.847177 -17.510535 -0.633710 50.835842 -77.961124 -16.450250 -3.110015 -15.254259 -17.540796 -2.851772 36.851233 -5.847780 56.321819 18.188389 -0.182893 -33.304212 82.006558 4.118779 8.373806 3.150390 -5.897466 
7.180133 1.174232 37.444614 179.128772 -3.017763 63.984262 32.913373 15.545856 -58.363266 -16.445406 24.714357 147.281286 0.549219 -10.213465 -35.434439 nan nan nan -33.752288 -17.481242 -56.448621 6.973722 -14.419122 152.926050 3.203055 25.754828 -37.135813 nan nan nan 1.572937 0.229524 75.005963 1.437135 -4.193095 -11.498820 0.425809 0.947688 0.008712 -10.947252 4.796097 -14.401976 8.415140 -9.172395 -15.625369 -1.777172 -36.677272 -3.397973 -49.854879 -17.507226 -0.572047 50.784225 -78.030113 -16.467006 -2.762927 -15.146105 -17.759134 -2.933242 36.799161 -5.924672 56.337261 18.200175 -0.103828 -32.390927 82.064684 5.139908 7.843541 3.103871 -5.627509 
7.183870 1.162548 37.446556 179.137591 -3.000681 63.985309 32.921877 15.531006 -58.341679 -16.454642 24.723553 147.253657 0.586825 -10.137194 -35.535182 nan nan nan -33.720260 -17.493175 -56.458435 6.950009 -14.409090 152.925767 3.202148 25.730865 -37.152079 nan nan nan 1.584665 0.241806 75.009118 1.452369 -4.207906 -11.452941 0.431275 0.953765 0.002621 -10.917627 4.824705 -14.291016 8.452200 -9.229581 -15.678391 -1.751485 -36.705392 -3.406194 -49.829960 -17.473296 -0.599663 51.061107 -78.117354 -16.730250 -2.872180 -15.000835 -17.715158 -2.963180 36.740678 -5.971711 56.319689 18.191904 -0.046008 -31.425149 82.260148 6.406815 7.483922 2.754529 -5.062993 
7.181053 1.149297 37.455856 179.148054 -2.998935 63.991244 32.913596 15.516593 -58.328784 -16.447594 24.743794 147.231308 0.631654 -10.084712 -35.579660 nan nan nan -33.679800 -17.502348 -56.455188 6.933060 -14.396517 152.933485 3.138970 25.649235 -37.207556 nan nan nan 1.630215 0.203476 75.034261 1.418565 -4.240864 -11.425637 0.420995 0.923366 -0.025238 -10.884899 4.752518 -14.211100 8.503785 -9.197099 -15.804010 -1.762764 -36.688095 -3.447729 -49.795448 -17.417099 -0.682057 51.069216 -78.286407 -16.777722 -3.052248 -14.824533 -17.572140 -3.005189 36.709009 -5.990864 56.316311 18.210526 -0.028048 -29.815725 82.536403 8.278398 7.197058 2.282946 -4.387557 
